# AST/ASF file generated using VICON BodyLanguage
# -----------------------------------------------
:version 1.10
:name VICON
:units
  mass 1.0
  length 0.45
  angle deg
:documentation
   .ast/.asf automatically generated from VICON data using
   VICON BodyBuilder and BodyLanguage model FoxedUp or BRILLIANT.MOD
:root
   order TX TY TZ RX RY RZ
   axis XYZ
   position 0 0 0  
   orientation 0 0 0 
:bonedata
  begin
     id 1 
     name lhipjoint
     direction 0.707368 -0.647095 0.284426 
     length 2.60678 
     axis 0 0 0  XYZ
  end
  begin
     id 2 
     name lfemur
     direction 0.34202 -0.939693 0  
     length 6.63812  
     axis 0 0 20  XYZ
    dof rx ry rz
    limits (-160.0 20.0)
           (-70.0 70.0)
           (-60.0 70.0)
  end
  begin
     id 3 
     name ltibia
     direction 0.34202 -0.939693 0   
     length 7.51178   
     axis 0 0 20   XYZ
    dof rx
    limits (-10.0 170.0)
  end
  begin
     id 4 
     name lfoot
     direction 0.121251 -0.333133 0.935051   
     length 1.83716   
     axis -90 7.62852e-016 20   XYZ
    dof rx rz
    limits (-45.0 90.0)
           (-70.0 20.0)
  end
  begin
     id 5 
     name ltoes
     direction 1.53611e-011 -4.21962e-011 1   
     length 0.916133   
     axis -90 7.62852e-016 20   XYZ
    dof rx
    limits (-90.0 20.0)
  end
  begin
     id 6 
     name rhipjoint
     direction -0.692419 -0.660507 0.290321   
     length 2.55385  
     axis 0 0 0  XYZ 
  end
  begin
     id 7 
     name rfemur
     direction -0.34202 -0.939693 0   
     length 7.29079   
     axis 0 0 -20   XYZ
    dof rx ry rz
    limits (-160.0 20.0)
           (-70.0 70.0)
           (-70.0 60.0)
  end
  begin
     id 8 
     name rtibia
     direction -0.34202 -0.939693 0   
     length 7.47143   
     axis 0 0 -20   XYZ
    dof rx
    limits (-10.0 170.0)
 end
 begin
     id 9 
     name rfoot
     direction -0.119907 -0.329441 0.936532   
     length 1.79439  
     axis -90 -7.62852e-016 -20   XYZ
    dof rx rz
    limits (-45.0 90.0)
           (-20.0 70.0)
  end
  begin
     id 10 
     name rtoes
     direction -1.53571e-011 -4.21961e-011 1   
     length 0.896039   
     axis -90 -7.62852e-016 -20   XYZ
    dof rx
    limits (-90.0 20.0)
  end
  begin
     id 11 
     name lowerback
     direction 0.0367721 0.992912 -0.113016   
     length 1.73542   
     axis 0 0 0   XYZ
    dof rx ry rz
    limits (-20.0 45.0)
           (-30.0 30.0)
           (-30.0 30.0)
  end
  begin
     id 12 
     name upperback
     direction -0.000314626 0.990678 0.136227   
     length 1.7514   
     axis 0 0 0   XYZ
    dof rx ry rz
    limits (-20.0 45.0)
           (-30.0 30.0)
           (-30.0 30.0)
  end
  begin
     id 13 
     name thorax
     direction -0.0226159 0.981151 0.191917   
     length 1.71471   
     axis 0 0 0   XYZ
    dof rx ry rz
    limits (-20.0 45.0)
           (-30.0 30.0)
           (-30.0 30.0)
  end
  begin
     id 14 
     name lowerneck
     direction 0.0219333 0.998071 0.0580739   
     length 1.65882   
     axis 0 0 0   XYZ
    dof rx ry rz
    limits (-20.0 45.0)
           (-30.0 30.0)
           (-30.0 30.0)
  end
  begin
     id 15 
     name upperneck
     direction 0.0384529 0.980058 -0.194957   
     length 1.6612   
     axis 0 0 0   XYZ
    dof rx ry rz
    limits (-20.0 45.0)
           (-30.0 30.0)
           (-30.0 30.0)
  end
  begin
     id 16
     name head
     direction 0.00592123 0.997421 -0.0715234  
     length 1.68077  
     axis 0 0 0   XYZ
    dof rx ry rz
    limits (-20.0 45.0)
           (-30.0 30.0)
           (-30.0 30.0)
  end
  begin
     id 17 
     name lclavicle
     direction 0.904803 0.417826 0.0821728  
     length 3.42227  
     axis 0 0 0   XYZ
    dof ry rz
    limits (-20.0 10.0)
           (0.0 20.0)
  end
  begin
     id 18 
     name lhumerus
     direction 1 -4.48965e-011 -2.68786e-027   
     length 5.11878   
     axis -180 -30 -90   XYZ
    dof rx ry rz
    limits (-60.0 90.0)
           (-90.0 90.0)
           (-90.0 90.0)
  end
  begin
     id 19
     name lradius
     direction 1 -4.48965e-011 2.61168e-028   
     length 3.59971   
     axis -180 -30 -90   XYZ
    dof rx
    limits (-10.0 170.0)
  end
  begin
     id 20
     name lwrist
     direction 1 -4.48965e-011 1.58672e-027   
     length 1.79985   
     axis -1.65735e-015 90 90   XYZ
    dof ry
    limits (-180.0 0.0)
 end
  begin
     id 21 
     name lhand
     direction 1 -4.48942e-011 3.17344e-027   
     length 0.62877   
     axis -2.02492e-015 90 90   XYZ
    dof rx rz
    limits (-90.0 90.0)
           (-45.0 45.0)
  end
  begin
     id 22 
     name lfingers
     direction 1 -4.49011e-011 6.34687e-027   
     length 0.506931   
     axis -4.04985e-015 90 90   XYZ
    dof rx
    limits (0.0 90.0)
  end
  begin
     id 23
     name lthumb
     direction 0.707107 -6.34982e-011 0.707107   
     length 0.727854   
     axis -90 45 2.85299e-015   XYZ
    dof rx rz
    limits (-45.0 45.0)
           (-45.0 45.0)
  end
  begin
     id 24 
     name rclavicle
     direction -0.945647 0.32488 0.0143075   
     length 3.52737  
     axis 0 0 0   XYZ 
    dof ry rz
    limits (-10.0 20.0)
           (-20.0 0.0)
  end
  begin
     id 25 
     name rhumerus
     direction -1 -4.48962e-011 1.92182e-027  
     length 5.4902   
     axis -180 30 90   XYZ
    dof rx ry rz
    limits (-90.0 60.0)
           (-90.0 90.0)
           (-90.0 90.0)
  end
  begin
     id 26 
     name rradius
     direction -1 -4.48967e-011 -5.97193e-028   
     length 3.20659   
     axis -180 30 90   XYZ
    dof rx
    limits (-10.0 170.0)
  end
  begin
     id 27 
     name rwrist
     direction -1 -4.48964e-011 1.58672e-027   
     length 1.6033   
     axis -1.65735e-015 -90 -90   XYZ
    dof ry
    limits (-180.0 0.0)
  end
  begin
     id 28
     name rhand
     direction -1 -4.49006e-011 3.17344e-027   
     length 0.691885   
     axis -2.02492e-015 -90 -90   XYZ
    dof rx rz
    limits (-90.0 90.0)
           (-45.0 45.0)
  end
  begin
     id 29
     name rfingers
     direction -1 -4.48908e-011 6.34687e-027   
     length 0.557815   
     axis -4.04985e-015 -90 -90   XYZ
    dof rx
    limits (0.0 90.0)
  end
  begin
     id 30
     name rthumb
     direction -0.707107 -6.34999e-011 0.707107   
     length 0.800915   
     axis -90 -45 -2.85299e-015   XYZ
    dof rx rz
    limits (-45.0 45.0)
           (-45.0 45.0)
  end
:hierarchy
  begin
    root lhipjoint rhipjoint lowerback
    lhipjoint lfemur
    lfemur ltibia
    ltibia lfoot
    lfoot ltoes
    rhipjoint rfemur
    rfemur rtibia
    rtibia rfoot
    rfoot rtoes
    lowerback upperback
    upperback thorax
    thorax lowerneck lclavicle rclavicle
    lowerneck upperneck
    upperneck head
    lclavicle lhumerus
    lhumerus lradius
    lradius lwrist
    lwrist lhand lthumb
    lhand lfingers
    rclavicle rhumerus
    rhumerus rradius
    rradius rwrist
    rwrist rhand rthumb
    rhand rfingers
  end

#!OML:ASF I:\Actors\actors\Patient Classification 1\Patient 1\Session 1\Subject1.ASF
:FULLY-SPECIFIED
:DEGREES
64
root -0.472521 17.5134 7.88705 9.69584 -4.50997 -8.37062
lowerback 1.33217 0.339661 4.98511
upperback -11.2448 1.03421 1.77232
thorax -12.8857 0.0897688 -0.968088
lowerneck -5.87105 -12.2098 -10.2912
upperneck 22.3554 -18.2545 10.0061
head 9.93915 -8.56951 2.99558
rclavicle 9.14409e-015 2.06736e-014
rhumerus -42.66 -21.0695 -73.9557
rradius 20.5682
rwrist 50.8145
rhand 5.16721 -29.066
rfingers 7.12502
rthumb 30.5294 -56.5561
lclavicle 9.14409e-015 2.06736e-014
lhumerus -43.17 12.331 80.8528
lradius 20.4039
lwrist -30.6935
lhand -15.196 -9.9966
lfingers 7.12502
lthumb 10.9757 19.6965
rfemur -4.08387 27.4608 23.4808
rtibia 0.90578
rfoot -10.4526 -24.8201
rtoes 1.58393
lfemur 5.60203 -45.6183 -13.319
ltibia -4.7163
lfoot -24.3677 56.1478
ltoes 17.4895
65
root -0.47268 17.5134 7.88772 9.6943 -4.51859 -8.36441
lowerback 1.33309 0.347674 5.00859
upperback -11.2373 1.04452 1.75071
thorax -12.8764 0.0910846 -1.00607
lowerneck -5.89721 -12.229 -10.1815
upperneck 22.3682 -18.2697 9.90264
head 9.92826 -8.57617 2.94086
rclavicle -3.57812e-015 -2.8625e-014
rhumerus -42.6497 -21.0199 -74.024
rradius 20.5677
rwrist 50.681
rhand 5.36331 -29.1145
rfingers 7.12502
rthumb 30.7164 -56.5696
lclavicle -3.57812e-015 -2.8625e-014
lhumerus -43.175 12.32 80.818
lradius 20.3642
lwrist -30.6455
lhand -14.7608 -9.55476
lfingers 7.12502
lthumb 11.3955 20.1156
rfemur -4.06932 27.4504 23.4745
rtibia 0.875323
rfoot -10.3851 -24.826
rtoes 1.42786
lfemur 5.60284 -45.5662 -13.3191
ltibia -4.73256
lfoot -24.302 56.1078
ltoes 17.4204
66
root -0.472962 17.5128 7.88763 9.7042 -4.52275 -8.38092
lowerback 1.34366 0.392835 5.07261
upperback -11.2383 1.10676 1.69802
thorax -12.8794 0.110832 -1.10684
lowerneck -5.78945 -12.2602 -10.1363
upperneck 22.2323 -18.3324 9.98617
head 9.87099 -8.60204 2.96166
rclavicle 4.57205e-015 -2.82274e-014
rhumerus -42.6955 -21.0634 -74.0638
rradius 20.5796
rwrist 50.5408
rhand 5.36042 -29.1457
rfingers 7.12502
rthumb 30.7137 -56.6014
lclavicle 4.57205e-015 -2.82274e-014
lhumerus -43.1537 12.2401 80.7961
lradius 20.3177
lwrist -30.6416
lhand -14.0045 -8.91117
lfingers 7.12502
lthumb 12.1248 20.7175
rfemur -4.08303 27.4576 23.4892
rtibia 0.877816
rfoot -10.3804 -24.8374
rtoes 1.5033
lfemur 5.52671 -45.3336 -13.2108
ltibia -4.76773
lfoot -23.9068 55.9631
ltoes 17.0822
67
root -0.473644 17.5121 7.88653 9.72913 -4.49824 -8.40661
lowerback 1.35212 0.420175 5.13686
upperback -11.2419 1.14782 1.67448
thorax -12.8861 0.122212 -1.17327
lowerneck -5.62552 -12.2533 -10.1965
upperneck 21.9928 -18.3486 10.1978
head 9.78537 -8.60787 3.05243
rclavicle 3.97569e-015 7.15625e-015
rhumerus -42.7197 -21.1462 -74.0214
rradius 20.5414
rwrist 50.5705
rhand 5.29612 -29.0087
rfingers 7.12502
rthumb 30.6524 -56.4758
lclavicle 3.97569e-015 7.15625e-015
lhumerus -43.1617 12.1512 80.8183
lradius 20.3464
lwrist -30.6608
lhand -14.0211 -8.8555
lfingers 7.12502
lthumb 12.1087 20.7741
rfemur -4.12136 27.4889 23.5118
rtibia 0.898832
rfoot -10.4186 -24.8821
rtoes 1.57379
lfemur 5.4393 -45.2566 -13.1018
ltibia -4.76445
lfoot -23.7773 55.9008
ltoes 16.9844
68
root -0.474293 17.5123 7.8868 9.7282 -4.49142 -8.4174
lowerback 1.3558 0.430538 5.1664
upperback -11.2284 1.16449 1.67805
thorax -12.8715 0.127955 -1.18798
lowerneck -5.64999 -12.2558 -10.1904
upperneck 21.963 -18.3466 10.1999
head 9.77867 -8.60566 3.0512
rclavicle 1.27222e-014 -1.63003e-014
rhumerus -42.7171 -21.1984 -73.9595
rradius 20.4915
rwrist 50.6852
rhand 5.26017 -28.8376
rfingers 7.12502
rthumb 30.6181 -56.3112
lclavicle 1.27222e-014 -1.63003e-014
lhumerus -43.168 12.0872 80.8627
lradius 20.3688
lwrist -30.6075
lhand -14.7794 -9.3875
lfingers 7.12502
lthumb 11.3775 20.2838
rfemur -4.12101 27.5199 23.5332
rtibia 0.910986
rfoot -10.4573 -24.9198
rtoes 1.67402
lfemur 5.49644 -45.4697 -13.1567
ltibia -4.72975
lfoot -24.1566 56.0275
ltoes 17.2877
69
root -0.474984 17.5129 7.8883 9.7147 -4.5069 -8.43576
lowerback 1.3613 0.425709 5.18552
upperback -11.2174 1.16329 1.71613
thorax -12.8628 0.128285 -1.15699
lowerneck -5.81857 -12.2574 -10.1927
upperneck 22.144 -18.3264 10.07
head 9.85882 -8.59603 2.99766
rclavicle 5.96354e-015 1.51076e-014
rhumerus -42.7163 -21.089 -73.9626
rradius 20.4937
rwrist 50.6635
rhand 5.30808 -28.8971
rfingers 7.12502
rthumb 30.6638 -56.3621
lclavicle 5.96354e-015 1.51076e-014
lhumerus -43.21 12.2228 80.8267
lradius 20.3478
lwrist -30.685
lhand -15.1112 -9.67586
lfingers 7.12502
lthumb 11.0575 20.0129
rfemur -4.09311 27.5405 23.5701
rtibia 0.905532
rfoot -10.4457 -24.9258
rtoes 1.76892
lfemur 5.54583 -45.4679 -13.1665
ltibia -4.74569
lfoot -24.1132 56.0398
ltoes 17.2675
70
root -0.475787 17.5131 7.88893 9.72543 -4.51707 -8.45681
lowerback 1.35905 0.396062 5.19511
upperback -11.2255 1.13085 1.78459
thorax -12.8749 0.115835 -1.0834
lowerneck -5.84915 -12.2136 -10.3017
upperneck 22.1682 -18.2532 10.0868
head 9.87744 -8.567 3.02776
rclavicle 2.26615e-014 -1.39149e-014
rhumerus -42.7189 -20.9071 -73.9658
rradius 20.5059
rwrist 50.6245
rhand 5.45839 -29.0432
rfingers 7.12502
rthumb 30.8071 -56.4813
lclavicle 2.26615e-014 -1.39149e-014
lhumerus -43.3057 12.5676 80.7078
lradius 20.3297
lwrist -30.9172
lhand -14.9927 -9.63426
lfingers 7.12502
lthumb 11.1718 20.0483
rfemur -4.09723 27.5347 23.5938
rtibia 0.903651
rfoot -10.4236 -24.8891
rtoes 1.77668
lfemur 5.47534 -45.2033 -13.0488
ltibia -4.79727
lfoot -23.6148 55.8896
ltoes 16.8093
71
root -0.475945 17.5132 7.88955 9.73633 -4.52143 -8.47666
lowerback 1.34499 0.386209 5.22215
upperback -11.2271 1.12261 1.82323
thorax -12.8696 0.111732 -1.05504
lowerneck -5.76838 -12.1836 -10.3846
upperneck 22.0452 -18.2213 10.214
head 9.83644 -8.5534 3.09399
rclavicle -5.56597e-015 -7.95139e-016
rhumerus -42.7587 -20.882 -73.8948
rradius 20.5043
rwrist 50.7241
rhand 5.63915 -29.0479
rfingers 7.12502
rthumb 30.9794 -56.4533
lclavicle -5.56597e-015 -7.95139e-016
lhumerus -43.3523 12.7136 80.6931
lradius 20.3088
lwrist -30.9611
lhand -14.9568 -9.59914
lfingers 7.12502
lthumb 11.2064 20.0816
rfemur -4.10738 27.5013 23.6113
rtibia 0.911585
rfoot -10.439 -24.8088
rtoes 1.80317
lfemur 5.46537 -45.2015 -13.0207
ltibia -4.79215
lfoot -23.6825 55.8844
ltoes 16.76
72
root -0.476204 17.5135 7.8905 9.73019 -4.51488 -8.50342
lowerback 1.35106 0.402019 5.26954
upperback -11.223 1.14887 1.82769
thorax -12.8673 0.119911 -1.07976
lowerneck -5.77647 -12.1969 -10.4142
upperneck 22.0465 -18.256 10.2906
head 9.85368 -8.56411 3.11812
rclavicle -9.54166e-015 4.09496e-014
rhumerus -42.8275 -20.978 -73.7887
rradius 20.4954
rwrist 50.8459
rhand 5.71555 -28.9582
rfingers 7.12502
rthumb 31.0522 -56.3497
lclavicle -9.54166e-015 4.09496e-014
lhumerus -43.3652 12.6721 80.7431
lradius 20.2869
lwrist -30.925
lhand -14.7155 -9.53814
lfingers 7.12502
lthumb 11.4392 20.1298
rfemur -4.09328 27.5119 23.6499
rtibia 0.906717
rfoot -10.4467 -24.8244
rtoes 1.77398
lfemur 5.49929 -45.3349 -13.0404
ltibia -4.74308
lfoot -24.0504 55.9399
ltoes 17.0379
73
root -0.477354 17.5136 7.89105 9.73391 -4.49977 -8.54327
lowerback 1.36227 0.400417 5.30997
upperback -11.2278 1.15255 1.84133
thorax -12.8802 0.118055 -1.08773
lowerneck -5.83196 -12.211 -10.4571
upperneck 22.1525 -18.2878 10.3151
head 9.91281 -8.57471 3.12293
rclavicle 3.77691e-015 2.62396e-014
rhumerus -42.8779 -21.0633 -73.698
rradius 20.4747
rwrist 50.9607
rhand 5.70215 -28.8101
rfingers 7.12502
rthumb 31.0395 -56.204
lclavicle 3.77691e-015 2.62396e-014
lhumerus -43.4097 12.6346 80.7605
lradius 20.3054
lwrist -30.9067
lhand -14.3621 -9.55614
lfingers 7.12502
lthumb 11.7799 20.0926
rfemur -4.0941 27.544 23.7035
rtibia 0.901961
rfoot -10.4231 -24.8978
rtoes 1.58177
lfemur 5.46938 -45.3107 -12.9695
ltibia -4.72208
lfoot -24.1227 55.9038
ltoes 17.1579
74
root -0.478172 17.5132 7.8918 9.75271 -4.48506 -8.54912
lowerback 1.34621 0.388654 5.31561
upperback -11.2353 1.13704 1.85034
thorax -12.8804 0.110481 -1.0789
lowerneck -5.84257 -12.2415 -10.4218
upperneck 22.1912 -18.3215 10.2379
head 9.92092 -8.59334 3.08547
rclavicle -1.59028e-015 -7.95139e-016
rhumerus -42.8973 -21.0423 -73.6836
rradius 20.4809
rwrist 50.9638
rhand 5.72516 -28.7317
rfingers 7.12502
rthumb 31.0614 -56.1215
lclavicle -1.59028e-015 -7.95139e-016
lhumerus -43.4461 12.6187 80.7682
lradius 20.3184
lwrist -30.8861
lhand -14.6013 -9.84161
lfingers 7.12502
lthumb 11.5493 19.8202
rfemur -4.11486 27.5191 23.7049
rtibia 0.90141
rfoot -10.3851 -24.9005
rtoes 1.50267
lfemur 5.45042 -45.3727 -12.9587
ltibia -4.69982
lfoot -24.2445 55.9445
ltoes 17.2691
75
root -0.478892 17.5129 7.89301 9.76042 -4.47717 -8.52176
lowerback 1.32171 0.390659 5.28994
upperback -11.2365 1.13526 1.84422
thorax -12.8662 0.112218 -1.07097
lowerneck -5.85777 -12.2689 -10.4009
upperneck 22.2374 -18.354 10.1791
head 9.93587 -8.6103 3.05613
rclavicle 2.52457e-014 -2.0276e-014
rhumerus -42.9059 -21.0143 -73.6901
rradius 20.4792
rwrist 50.8855
rhand 5.72934 -28.7512
rfingers 7.12502
rthumb 31.0654 -56.1402
lclavicle 2.52457e-014 -2.0276e-014
lhumerus -43.4723 12.6352 80.7653
lradius 20.3107
lwrist -30.9214
lhand -15.0037 -10.1107
lfingers 7.12502
lthumb 11.1612 19.5724
rfemur -4.11734 27.5015 23.6748
rtibia 0.904249
rfoot -10.3547 -24.9039
rtoes 1.51861
lfemur 5.42595 -45.3887 -12.9909
ltibia -4.65391
lfoot -24.2152 55.9486
ltoes 17.1539
76
root -0.480314 17.5134 7.89428 9.76607 -4.47522 -8.55482
lowerback 1.29932 0.396688 5.31081
upperback -11.2329 1.14436 1.85438
thorax -12.8478 0.115608 -1.07244
lowerneck -5.83943 -12.2895 -10.4332
upperneck 22.2402 -18.3873 10.2014
head 9.94316 -8.62685 3.06426
rclavicle -5.76476e-015 1.98785e-014
rhumerus -42.9107 -21.0074 -73.6896
rradius 20.4512
rwrist 50.817
rhand 5.65225 -28.7553
rfingers 7.12502
rthumb 30.9919 -56.1583
lclavicle -5.76476e-015 1.98785e-014
lhumerus -43.501 12.6314 80.7686
lradius 20.313
lwrist -30.9307
lhand -15.1549 -10.1898
lfingers 7.12502
lthumb 11.0153 19.5012
rfemur -4.11653 27.5248 23.7222
rtibia 0.915478
rfoot -10.3367 -24.9109
rtoes 1.47675
lfemur 5.39266 -45.3131 -12.9243
ltibia -4.63436
lfoot -24.0702 55.8948
ltoes 17.0127
77
root -0.481462 17.5135 7.89508 9.79692 -4.45511 -8.62528
lowerback 1.26775 0.39575 5.37997
upperback -11.2381 1.1482 1.87049
thorax -12.8347 0.111577 -1.09334
lowerneck -5.84319 -12.3018 -10.4512
upperneck 22.2567 -18.4151 10.2398
head 9.95912 -8.63698 3.07503
rclavicle -1.05356e-014 -1.19271e-015
rhumerus -42.9212 -20.9659 -73.7068
rradius 20.4549
rwrist 50.7372
rhand 5.6184 -28.7703
rfingers 7.12502
rthumb 30.9596 -56.1795
lclavicle -1.05356e-014 -1.19271e-015
lhumerus -43.5152 12.6227 80.7604
lradius 20.3028
lwrist -30.9237
lhand -15.2445 -10.2385
lfingers 7.12502
lthumb 10.929 19.4571
rfemur -4.14971 27.5069 23.7974
rtibia 0.930145
rfoot -10.3339 -24.888
rtoes 1.28315
lfemur 5.31495 -45.1808 -12.7596
ltibia -4.65582
lfoot -23.9244 55.7906
ltoes 17.0061
78
root -0.482027 17.5125 7.89581 9.83932 -4.42184 -8.64825
lowerback 1.22876 0.389248 5.41044
upperback -11.2548 1.13989 1.87306
thorax -12.831 0.104447 -1.10592
lowerneck -5.88938 -12.3064 -10.4534
upperneck 22.3341 -18.4348 10.2612
head 10.0005 -8.64026 3.07568
rclavicle 3.23025e-014 -2.14687e-014
rhumerus -42.9587 -20.963 -73.6967
rradius 20.4822
rwrist 50.7308
rhand 5.651 -28.7714
rfingers 7.12502
rthumb 30.9907 -56.1747
lclavicle 3.23025e-014 -2.14687e-014
lhumerus -43.5333 12.7106 80.6865
lradius 20.2773
lwrist -31.0144
lhand -15.2407 -10.2403
lfingers 7.12502
lthumb 10.9326 19.4551
rfemur -4.19776 27.4512 23.8062
rtibia 0.944047
rfoot -10.3501 -24.8587
rtoes 1.11721
lfemur 5.15521 -44.8897 -12.5814
ltibia -4.67676
lfoot -23.4988 55.5524
ltoes 16.7724
